<svg width="293" height="269" viewBox="0 0 293 269" fill="none" xmlns="http://www.w3.org/2000/svg">
<rect width="293" height="269" fill="white"/>
<path d="M49.9668 70.8262C61.7822 71.1282 93.0149 70.6323 104.78 70.1971C110.892 69.971 128.453 68.6978 153.066 66.5902C168.957 64.7396 189.822 63.6628 216.543 64.0952C228.226 64.726 236.097 66.1922 246.576 68.5128" stroke="black" stroke-width="10" stroke-linecap="round"/>
<path d="M57.9766 135.816L241.446 133.161" stroke="black" stroke-width="10" stroke-linecap="round"/>
<path d="M48 197.78C57.7062 197.527 87.7706 198.951 122.945 201.088C136.626 201.919 159.362 202.029 186.16 202.121C201.007 201.516 210.898 200.571 233.49 200.907C238.265 201.698 240.175 203.425 243.817 205.733" stroke="black" stroke-width="10" stroke-linecap="round"/>
</svg>
