<svg width="921" height="180" viewBox="0 0 921 180" fill="none" xmlns="http://www.w3.org/2000/svg">
<g clip-path="url(#clip0_2896_240)">
<path fill-rule="evenodd" clip-rule="evenodd" d="M94.0003 151C93.5003 156.15 93.3503 170.2 93.8503 170.65C94.4003 171.25 107.55 171 111 170.35L114.25 169.75L114.65 149C115.25 121.4 115.25 109.1 114.8 97.9999C114.4 89.0499 114.4 88.6999 115.4 87.8499C116.1 87.1999 117 87 118.55 87.0999C119.22 87.1525 119.7 87.1498 120.082 87.3422C121.154 87.882 121.452 89.9577 123 99.0999C123.85 103.95 124.75 108.55 125 109.35C125.25 110.1 125.95 114.15 126.45 118.3C127.9 129.15 128.05 130 128.8 132.75C129.2 134.15 130.05 139.05 130.75 143.65C131.45 148.3 132.2 152.45 132.45 152.9C132.65 153.35 133.25 156.85 133.75 160.6C134.25 164.35 134.8 167.7 135 168.05C135.55 168.9 145.8 169.25 148.95 168.5C151.95 167.8 152.5 167.05 152.5 163.55C152.5 161.05 151.25 154.7 150.55 153.75C149.95 152.9 149.1 149.55 148.25 144.25C147.8 141.5 147.1 138.6 146.7 137.8C146.3 136.95 145.5 134 144.95 131.2C144.4 128.35 143.5 124.5 142.95 122.65C142.4 120.8 141.4 116.6 140.7 113.3C140 110.05 139.2 107 138.95 106.55C138.7 106.1 137.8 102.4 137 98.2499C135.2 89.4499 133.25 81.7 131 74.75C127.55 64 126 59.1 125 55.25C124.4 53.1 123.75 51.0499 123.55 50.75C123.35 50.5 122.85 49.15 122.5 47.75C121.7 44.8 117.1 33 116.4 32.15C115.7 31.3 108.5 31.3 107.35 32.15C106.35 32.9 105.6 36.8999 105 44.7499C104.5 51.3499 103.65 58.2999 103 61C102.5 62.95 100.35 80.2 99.5003 88.75C99.2003 91.7999 98.7503 95.0499 98.5003 95.9999C98.2003 96.9499 97.8003 102.8 97.5003 109C96.7003 126.35 96.1003 134.75 95.2003 141C94.7503 144.15 94.2003 148.65 94.0003 151ZM114.5 59.5C114 60.5 113 69.5 113 69.5H115.4H117.5H119L115.4 59.5C115.4 59.5 115 58.5 114.5 59.5Z" fill="black"/>
<path d="M500.95 165.15C500.6 164.3 500.3 157.15 500.2 147.25C500.05 138.2 499.65 125.8 499.25 119.75C498.85 113.7 498.3 104.05 497.95 98.2499C497.1 81.6999 496.6 75.7499 495.6 68.2499C495.05 64.3999 494.35 57.9999 494.05 53.9999C493.75 49.9999 493.25 44.0499 492.95 40.7499C492.6 37.4499 492.45 34.2999 492.55 33.7499C492.8 32.5999 494.4 32.1499 498.85 32.0499C502.55 31.9999 503.2 32.4499 504.3 36.3999C505.8 41.8499 512.85 62.2999 514.2 65.2499C514.55 66.0499 515.15 67.6499 515.5 68.7499C516.25 70.9999 519.5 78.3499 523.85 87.5499C525.5 90.9999 527.15 94.6999 527.5 95.7999C527.85 96.8499 528.9 99.1999 529.8 101C531.65 104.65 536.3 116.4 538.55 123.15C539.35 125.55 540.45 128.4 541 129.4L541.95 131.25L542 120.9C542 114.7 541.8 110.5 541.55 110.5C541.05 110.5 540.95 108.85 540.05 81.7499C539.5 63.3999 538.8 51.3499 537.9 44.2499C537.6 41.7999 537.25 37.4499 537.15 34.6499L536.95 29.5499L539.1 29.2499C540.3 29.0999 543.4 28.9999 546 29.0999L550.75 29.2499L551.6 36.2499C552.9 46.8999 554.4 71.6499 554.75 86.9999C555 99.4499 555.55 110.7 557 132.25C557.3 136.4 557.5 144.15 557.5 149.55C557.5 160.6 557.65 160.15 553.5 161.65C550.55 162.7 541.55 163.7 538.8 163.3C537.55 163.1 536.35 162.65 536.05 162.35C535.6 161.75 531.85 152.2 528.45 142.75C527.65 140.55 526.55 137.95 526.05 137C525.5 136.05 524.8 134.25 524.5 133C524.15 131.8 523.5 129.9 523 128.75C522.45 127.65 520.65 122.6 518.95 117.5C517.25 112.4 515.65 107.9 515.4 107.5C514.7 106.4 515.6 125.95 517.15 146.25C517.45 150.65 517.75 156.6 517.75 159.5V164.7L514.5 165.6C512.5 166.15 509.35 166.45 506.35 166.5C501.5 166.5 501.45 166.5 500.95 165.15Z" fill="black"/>
<path d="M31.1002 164.25C29.8502 162.65 29.9002 168.8 30.0002 90.25C30.0502 47.25 30.1002 43.7 30.9002 42.8C31.6502 41.95 32.2502 41.9 37.2502 42.15C43.1002 42.45 45.7502 43.1 46.4502 44.45C46.9002 45.3 47.0502 61.55 47.0502 108.1C47.0502 123.7 47.2502 138.3 47.5002 140.6C47.8002 142.9 48.0002 145.1 48.0002 145.5C48.0002 146.15 49.7002 146.25 61.1002 146.1C72.2002 145.95 74.4002 146.05 75.2502 146.65C76.1502 147.35 76.2502 148 76.2502 153.6C76.2502 157 76.0502 160.4 75.8502 161.15C75.2002 163.55 73.4502 163.9 62.0002 163.95C56.3502 163.95 50.5502 164.2 49.0502 164.5C47.5502 164.75 43.1502 165.15 39.2502 165.35L32.2002 165.65L31.1002 164.25Z" fill="black"/>
<path d="M579.75 163.45C577.55 162.75 574.4 160.45 573.15 158.55C570.9 155.2 568.9 142.65 567.9 125.25C567.6 120.3 567.35 98.65 567.3 77.15L567.25 38.1L568.75 35.9C571.35 32.25 577.4 30.55 587.75 30.5C593.4 30.5 595.9 31.05 597.8 32.7C598.95 33.65 599.2 34.5 599.75 38.55C600.15 41.15 600.8 45.15 601.2 47.5C601.65 49.85 602 52.95 602 54.35C602 56.55 601.8 57.1 600.9 57.7C598.35 59.3 589.5 60.15 588.65 58.9C588.45 58.55 588.15 55.95 588 53.15C587.85 50.35 587.6 47.9 587.4 47.75C586.9 47.2 582.85 49.25 581.5 50.7L580.25 52.1L579.9 86.4C579.4 133.55 579.9 139.8 584.4 144.65C586 146.35 586.5 146.35 588.15 144.6C589.3 143.4 589.55 142.6 589.8 139.2C590 137.05 590.35 134.95 590.65 134.65C590.95 134.2 592.7 134 596.05 134C602.9 134 602.7 133.75 602.25 143.25C602.1 147.35 601.75 151 601.5 151.25C601.3 151.55 600.95 152.55 600.75 153.5C599.85 158.15 599.5 158.8 597.1 160.65C595.65 161.7 593.6 162.75 592.2 163.05C588.8 163.8 581.55 164.05 579.75 163.45Z" fill="black"/>
<path d="M365 161.25C364.2 160.25 364 157.05 363.05 129C362.05 98 361.5 84.15 360.95 77.25C359.85 63.55 359.4 57.15 359.2 50.2L358.95 43.1L360.55 42.55C362.25 41.95 366.85 41.4 377.55 40.5C381.05 40.2 384.65 39.75 385.55 39.45C386.5 39.2 391.05 38.4 395.75 37.7C400.4 37 405.6 36.15 407.25 35.75C412.35 34.6 416.7 34.3 417.3 35.1C417.6 35.45 418.45 37.35 419.25 39.25C420.8 43.2 421.35 47.4 420.65 50C420.2 51.7 420.05 51.8 416.2 52.65C408.4 54.45 402.2 55.45 399 55.5C394.65 55.5 380.8 57.1 380.6 57.6C380.5 57.8 379.3 58 377.95 58H375.5V71.75V85.45L380.2 85.15C384.75 84.85 384.9 84.9 385.5 86C385.85 86.7 386.15 89.4 386.2 92.7L386.25 98.25L381 99L375.75 99.75L375.6 103.25C375.25 109.35 377.05 134.15 378.45 143.25C378.7 144.9 378.95 149.55 378.95 153.55C379 160.1 378.9 160.95 378.15 161.25C377.65 161.4 374.65 161.7 371.5 161.85C366.35 162.1 365.65 162.05 365 161.25Z" fill="black"/>
<path d="M436.65 161.55C433.15 161.2 432.25 160.9 430.15 159.45C427.5 157.55 423.85 152.4 422.85 149.25C421.5 144.75 422.4 118.7 424.05 115.45C424.3 115 424.8 112.15 425.2 109.2C426.75 97.5499 427.65 91.7499 428 91.4999C428.2 91.3499 428.6 88.9999 428.95 86.2499C429.85 78.8499 431.1 71.2999 431.55 70.7499C431.75 70.4499 432.15 68.8499 432.45 67.2499C434.35 56.1499 435.15 53.0499 438 45.7499C438.65 44.0499 440.25 42.1499 441.75 41.3999C442.25 41.0999 444.95 40.1999 447.75 39.3999C452.35 38.0499 453.15 37.9999 457.75 38.2999C463.5 38.6999 465.75 39.5499 467.8 42.2499C469.3 44.2499 472.25 52.1499 473.3 56.9999C474.6 63.0999 475.45 76.6999 475.7 95.9999C475.9 106.6 476.25 116.25 476.55 117.5C476.85 118.75 477.1 123.9 477.15 129C477.2 137.85 477.15 138.45 475.8 142.75C473.25 150.9 468.55 157.15 463.6 159C462.1 159.6 459.3 160.35 457.45 160.75C453.25 161.65 442.1 162.05 436.65 161.55ZM455.4 146.4C458.1 145.05 462.7 139.4 463.5 136.5C464.1 134.3 464.1 107.2 463.45 95.4999C462.55 78.9499 461.75 67.2499 461.45 66.7499C461.25 66.4999 460.95 64.5999 460.8 62.5999C460.4 58.5499 459.3 54.4499 458.1 52.3999C456.9 50.3999 454.85 50.4999 452.75 52.6999C450.75 54.8499 447.7 61.0499 447.25 63.9999C447.05 65.2499 446.45 67.5999 445.95 69.2499C445.45 70.8999 444.6 74.9499 444 78.2499C443.45 81.5499 442.5 85.6999 442 87.4999C440.9 91.1499 440.3 96.5499 439.5 109.5C439.2 114.3 438.7 119.4 438.4 120.75C437.9 123.35 438.05 129.25 438.95 137.6C439.45 142.4 440.2 144.7 441.7 145.95C444.55 148.3 451.25 148.55 455.4 146.4Z" fill="black"/>
<path d="M625.4 160.8C623.9 160.05 623.65 157.4 623.55 142.15C623.55 135.8 623.25 128.85 622.95 126.75C622.55 123.6 621.7 81.3499 621.35 47.2499C621.3 40.6499 621.8 35.4999 622.7 34.0999C622.95 33.6499 625.75 33.4999 633.15 33.4999C638.7 33.4999 646.05 33.1499 649.5 32.7999C663 31.2499 662.95 31.2499 663.45 32.5499C663.7 33.1999 663.95 37.4499 664.05 41.9999L664.25 50.2499L658.25 50.3499C650.6 50.4999 635.05 51.5499 634.8 51.9499C634.7 52.0999 634.5 55.6499 634.45 59.7499L634.25 67.2499H640.35C643.65 67.2499 646.5 67.3499 646.65 67.4999C647.1 67.9499 648.6 79.2499 648.4 80.9999C648.25 82.5999 648.1 82.7499 646.05 83.0999C644.8 83.2999 643.7 83.6999 643.5 83.9999C643.3 84.2999 641.35 84.6499 639.1 84.8499L635 85.1499V87.7999C635 89.2999 635.25 90.4999 635.5 90.4999C635.8 90.4999 636 95.5499 636 104.65C636.05 113.75 636.3 120.85 636.75 124.75C637.15 128.05 637.5 133.8 637.5 137.55C637.5 145.75 637.65 146.1 641.25 145.5C642.65 145.25 645.75 145.05 648.2 145.05C650.65 145 654.7 144.65 657.25 144.2C663.3 143.2 665.55 143.35 666.35 145C667.1 146.55 668.25 158.45 667.8 160.2L667.5 161.5L647 161.45C632.8 161.4 626.2 161.2 625.4 160.8Z" fill="black"/>
<path d="M236.3 152.65C236.15 149.95 235.8 144.85 235.5 141.25C235.25 137.7 235.05 132.9 235 130.65C235 128.2 234.8 126.5 234.5 126.5C234.2 126.5 234 125.1 234 123.3C234 121.6 233.75 117.25 233.45 113.7C233.15 110.15 232.6 100.05 232.2 91.25C231.4 74.35 231 67.7 229.95 54.75C229.35 47 229.3 46.7 227.85 45.05C226.4 43.35 226.35 43.25 226.7 39.1C226.85 36.8 227.15 34.7 227.3 34.45C227.45 34.2 228.7 34 230.05 34C234.7 34 239.35 37.05 254.35 50.1C270.85 64.45 278.95 75.4 280.55 85.7C281.15 89.55 280.85 102.5 280.05 105.5C275.85 121.75 272.6 128.55 263.3 140.5C260.15 144.55 251.4 152.55 246.95 155.4C243.9 157.35 243.45 157.5 240.15 157.5H236.65L236.3 152.65ZM257 120.75C262.25 110.15 262.75 108.7 264.75 99.25C266.3 92 266.3 88.65 264.95 84.2C262.2 75.2 257.9 69.65 246.9 60.55C242.85 57.25 242.55 57.05 242.75 58.35C242.9 59.1 243.25 62.55 243.55 66C243.8 69.45 244.35 76.2 244.75 81C245.1 85.8 245.8 93.35 246.2 97.75C247.85 114.95 248.45 121.4 248.75 125.5C248.9 127.85 249.15 130.65 249.35 131.75L249.6 133.7L250.85 132.25C251.5 131.4 254.3 126.25 257 120.75Z" fill="black"/>
<path d="M760.9 155.95C756.05 153.4 751.05 142.5 751 134.35C751 132.25 751.15 131.9 752.3 131.5C753 131.2 756.15 131 759.25 131H765L765.25 132.4C767.05 141.35 769.7 143 778.5 140.7C785.5 138.85 789.15 137 790.7 134.55C791.95 132.55 792 132.3 792 123.9C792 119.2 791.8 114.65 791.55 113.8C791.25 112.95 790.7 109 790.25 105C789.1 94.6999 788.4 92.2999 785.3 87.9499C783.9 85.9499 781.75 83.5499 780.6 82.6999C778.05 80.6999 773.55 78.9499 770.25 78.5999C765.9 78.1999 763.9 75.8999 761.3 68.5499C760.3 65.7999 759.75 62.4499 759 55.2999C758.45 50.0499 757.75 45.2499 757.5 44.5999C757.2 43.9499 757 39.6499 757 34.9499C757 26.8499 757.05 26.3499 758.25 23.9999C760.05 20.4499 763.1 18.3999 769.75 16.2999C772.8 15.3499 776.85 14.0499 778.75 13.4499C781.15 12.6999 783.95 12.2499 787.65 12.0999C792.75 11.8999 793.15 11.9499 794.3 12.9999C796.15 14.7999 800.8 23.2499 804.35 31.3999C807 37.4499 807.5 39.1499 807.4 40.9999C807.25 43.1999 807.2 43.2499 804.25 44.6999C800.65 46.3999 796.05 46.9999 795.1 45.8499C794.75 45.4499 793.7 42.8499 792.75 40.0499C789.75 31.2999 789.2 30.5999 785.65 31.4499C778.95 33.1499 775.55 36.2499 774.4 41.6499C773.8 44.4999 774.25 48.3999 776.45 58.7499C777.95 65.7999 778.5 66.8499 781.1 67.4999C786.05 68.6999 788.9 69.6999 791.35 71.0999C794 72.5499 797 75.5999 798.3 78.0499C799.5 80.3999 802.95 93.0999 803.75 98.2499C804.2 101 804.95 105.85 805.5 109C806.9 117.25 807.65 126.25 807.45 132.95C807.25 138.05 807.1 139.1 805.9 141.5C804.1 145.2 802.8 146.3 796 150.15C786.4 155.6 781 157 770.1 157C763.8 156.95 762.5 156.8 760.9 155.95Z" fill="black"/>
<path d="M296.501 154.4C296.001 154.2 295.201 153.35 294.751 152.5C294.051 151.15 293.951 149.45 294.151 140.85C294.501 123 295.501 95.95 296.001 88.7C296.851 76.55 296.551 59.55 295.201 45.45L294.901 42.15L296.551 41.85C297.501 41.7 304.551 41.5 312.251 41.4L326.251 41.25V49.75V58.25H318.251H310.251L310.101 67.4L310.001 76.5H312.751H315.551L315.401 81.4L315.251 86.25L312.751 86.7C311.401 86.9 309.951 87.2 309.651 87.3C309.151 87.45 309.001 92.65 309.001 111.1C309.001 124.1 308.851 135.95 308.651 137.45L308.351 140.15L319.651 139.75C330.401 139.4 331.001 139.45 331.351 140.35C331.601 140.85 331.751 144.3 331.751 148V154.75H314.601C305.151 154.75 297.051 154.6 296.501 154.4Z" fill="black"/>
<path d="M695.25 154.5C693.6 154.3 691.9 154 691.45 153.8C690.15 153.2 687.55 149.7 686.25 146.8C684.5 142.85 684 139.1 683.75 128.65C683.5 115.9 682.55 94.7999 681.95 88.9999C681.7 86.3999 681.25 78.3999 681 71.2499C680.75 64.0999 680.4 57.5999 680.25 56.7499C679.65 53.5499 679 30.2499 679.5 28.7499C679.9 27.5999 680.75 26.8999 683.4 25.5999C685.3 24.6999 687.5 23.9999 688.55 23.9999H690.35L690.95 30.3999C691.25 33.9499 691.75 37.5999 692.05 38.5499C692.3 39.4999 692.95 44.1999 693.5 48.9999C694.05 53.7999 694.8 60.9999 695.25 64.9999C697.25 82.9999 698 90.1999 698.5 95.9999C698.75 99.4499 699.2 104.15 699.5 106.5C699.75 108.85 700.3 114.25 700.75 118.5C702.5 135.85 702.95 138.1 704.65 139.2C706.25 140.2 711.4 139.45 716.55 137.4C722.45 135.05 722.7 134.45 722 125.2C721.7 121.35 721.25 116.95 720.95 115.4C720.7 113.8 720.35 111.05 720.15 109.25C720 107.45 719.7 106 719.5 106C719.05 106 718.1 100.75 717.25 93.1999C716.85 89.7999 716.25 86.5999 716 86.1499C715.7 85.6499 714.8 80.5499 714 74.7499C713.2 68.9999 712.05 62.2499 711.5 59.7499C710.9 57.2999 710 52.5499 709.5 49.2499C708.95 45.9499 708.05 40.7999 707.55 37.8499C707 34.8499 706.4 29.9999 706.2 26.9999L705.85 21.5499L707.8 21.2999C708.9 21.0999 710.75 20.7499 712 20.4999C716.15 19.6499 720.85 19.3499 721.9 19.9499C722.95 20.4999 723.6 22.5999 725.75 32.4999C726.95 38.0499 727.35 41.6499 728.5 55.7499C728.8 59.3499 729.35 64.2499 729.75 66.6499C730.2 69.0499 730.75 73.8999 731 77.3999C731.3 80.8999 731.75 85.4499 732 87.4999C732.25 89.5499 732.6 92.9499 732.8 94.9999C733 97.0499 733.3 98.9999 733.55 99.2499C734.35 100.3 736.6 122.4 736.85 132C737.1 141.75 737.1 141.8 735.85 144.3C734.3 147.35 730.4 151 726.75 152.75C724.6 153.8 723.15 154.1 719.4 154.3C709.9 154.7 698.15 154.8 695.25 154.5Z" fill="black"/>
<path d="M824.15 154.2C823.65 154 823.5 148.8 823.45 130.85C823.4 118.15 823.2 103.5 822.95 98.25C822.75 93.05 822.3 77.85 822.05 64.5C821.2 20.7 821.2 21.1 821.9 20.4C822.35 19.95 824.9 19.65 829.9 19.4C833.95 19.25 840.4 18.85 844.25 18.55C848.1 18.25 853.85 17.85 857.05 17.7L862.85 17.35L863.2 23.65C863.4 27.7 863.35 30.3 863.05 30.95C862.45 32 861.2 32.25 851.75 33C848.2 33.3 843.25 33.95 840.75 34.4L836.25 35.25L836.3 44.2C836.4 54.05 836.45 54.15 839.45 53.6C840.45 53.4 844.3 53.25 848 53.25H854.75L854.9 59.6C855 65.65 855 65.95 853.95 66.55C853.35 66.85 849.45 67.25 845.2 67.45C841 67.6 837.4 67.95 837.2 68.15C837 68.35 837.1 78.35 837.4 90.4C837.75 102.4 838 115.4 838 119.25C838 123.1 838.15 129.1 838.35 132.65L838.65 139H841C843.35 139 849.85 138.15 858.85 136.7C864 135.9 866.5 136.05 867.5 137.25C868.2 138.05 869.95 148.05 870 151.05C870 154.35 870.65 154.25 846.55 154.35C834.55 154.4 824.45 154.35 824.15 154.2Z" fill="black"/>
<path d="M301.4 37.15C299.6 36.45 299.5 36.3 299.5 34.05C299.5 31.85 299.65 31.55 302.65 28.7C304.35 27 308.6 23.15 312.1 20.1C318.35 14.65 318.55 14.5 320.85 14.5C322.8 14.5 323.7 14.85 325.65 16.25C327.9 17.95 328 18.1 328 20.45C328 22.5 327.75 23.1 326.3 24.6C324.4 26.55 317.15 32.25 313.9 34.35C312.7 35.1 311.1 36.25 310.35 36.85C308.6 38.25 304.3 38.4 301.4 37.15Z" fill="black"/>
</g>
<defs>
<clipPath id="clip0_2896_240">
<rect width="921" height="180" fill="white"/>
</clipPath>
</defs>
</svg>
